<?xml version="1.0" standalone="no"?>
<!DOCTYPE svg PUBLIC "-//W3C//DTD SVG 20010904//EN"
 "http://www.w3.org/TR/2001/REC-SVG-20010904/DTD/svg10.dtd">
<svg version="1.0" xmlns="http://www.w3.org/2000/svg"
 width="100.000000pt" height="100.000000pt" viewBox="0 0 100.000000 100.000000"
 preserveAspectRatio="xMidYMid meet">
<metadata>
Created by potrace 1.16, written by Peter Selinger 2001-2019
</metadata>
<g transform="translate(0.000000,100.000000) scale(0.100000,-0.100000)"
fill="#000000" stroke="none">
<path d="M385 906 c-140 -44 -239 -141 -285 -277 -18 -52 -21 -81 -18 -151 4
-75 9 -96 41 -161 42 -85 116 -160 192 -196 62 -29 75 -23 75 34 l0 45 -42 0
c-49 0 -78 20 -101 66 -9 17 -23 36 -31 43 -21 18 -20 31 3 31 20 0 44 -22 36
-33 -3 -4 -2 -5 1 -2 4 2 22 -9 41 -25 18 -17 39 -30 46 -30 32 1 54 14 64 40
10 27 9 28 -26 35 -51 9 -96 40 -122 82 -29 46 -32 142 -6 190 9 18 17 54 17
81 0 63 13 74 64 57 21 -7 43 -18 48 -23 5 -5 31 -5 64 0 33 5 77 5 106 -1 43
-7 56 -6 82 10 65 40 101 20 95 -54 -1 -17 6 -48 16 -67 25 -45 25 -142 1
-188 -20 -39 -78 -78 -127 -87 l-36 -7 13 -36 c7 -21 13 -68 14 -105 0 -81 9
-87 73 -57 142 67 237 220 237 380 0 195 -135 366 -322 410 -59 13 -165 11
-213 -4z"/>
</g>
</svg>
